HIERARCHY
ROOT hip
{
  OFFSET 0 0 0
  CHANNELS 6 Xposition Yposition Zposition Zrotation Yrotation Xrotation
  JOINT abdomen
  {
    OFFSET 0 20.6881 -0.73152
    CHANNELS 3 Zrotation Xrotation Yrotation
    JOINT chest
    {
      OFFSET 0 11.7043 -0.48768
      CHANNELS 3 Zrotation Xrotation Yrotation
      JOINT neck
      {
        OFFSET 0 22.1894 -2.19456
        CHANNELS 3 Zrotation Xrotation Yrotation
        JOINT head
        {
          OFFSET -0.24384 7.07133 1.2192
          CHANNELS 3 Zrotation Xrotation Yrotation
          JOINT leftEye
          {
            OFFSET 4.14528 8.04674 8.04672
            CHANNELS 3 Zrotation Xrotation Yrotation
            End Site
            {
              OFFSET 1 0 0
            }
          }
          JOINT rightEye
          {
            OFFSET -3.6576 8.04674 8.04672
            CHANNELS 3 Zrotation Xrotation Yrotation
            End Site
            {
              OFFSET 1 0 0
            }
          }
        }
      }
      JOINT rCollar
      {
        OFFSET -2.68224 19.2634 -4.8768
        CHANNELS 3 Zrotation Xrotation Yrotation
        JOINT rShldr
        {
          OFFSET -8.77824 -1.95073 1.46304
          CHANNELS 3 Zrotation Xrotation Yrotation
          JOINT rForeArm
          {
            OFFSET -28.1742 -1.7115 0.48768
            CHANNELS 3 Zrotation Xrotation Yrotation
            JOINT rHand
            {
              OFFSET -22.5879 0.773209 7.07136
              CHANNELS 3 Zrotation Xrotation Yrotation
              JOINT rThumb1
              {
                OFFSET -1.2192 -0.487915 3.41376
                CHANNELS 3 Zrotation Xrotation Yrotation
                JOINT rThumb2
                {
                  OFFSET -3.37035 -0.52449 3.41376
                  CHANNELS 3 Zrotation Xrotation Yrotation
                  End Site
                  {
                    OFFSET -1.78271 -1.18214 1.43049
                  }
                }
              }
              JOINT rIndex1
              {
                OFFSET -7.75947 0.938293 5.60832
                CHANNELS 3 Zrotation Xrotation Yrotation
                JOINT rIndex2
                {
                  OFFSET -2.54057 -0.884171 1.56538
                  CHANNELS 3 Zrotation Xrotation Yrotation
                  End Site
                  {
                    OFFSET -1.62519 -0.234802 1.16502
                  }
                }
              }
              JOINT rMid1
              {
                OFFSET -8.24714 1.18213 3.41376
                CHANNELS 3 Zrotation Xrotation Yrotation
                JOINT rMid2
                {
                  OFFSET -3.10165 -0.590103 1.0647
                  CHANNELS 3 Zrotation Xrotation Yrotation
                  End Site
                  {
                    OFFSET -2.48547 -0.328903 0.83742
                  }
                }
              }
              JOINT rRing1
              {
                OFFSET -8.82822 0.546677 1.51678
                CHANNELS 3 Zrotation Xrotation Yrotation
                JOINT rRing2
                {
                  OFFSET -2.60934 -0.819778 -0.0198488
                  CHANNELS 3 Zrotation Xrotation Yrotation
                  End Site
                  {
                    OFFSET -2.33842 -0.294052 0.168128
                  }
                }
              }
              JOINT rPinky1
              {
                OFFSET -8.27202 -0.0477905 -0.4584
                CHANNELS 3 Zrotation Xrotation Yrotation
                JOINT rPinky2
                {
                  OFFSET -1.82734 -0.647385 -0.700984
                  CHANNELS 3 Zrotation Xrotation Yrotation
                  End Site
                  {
                    OFFSET -1.69225 -0.51767 -0.607171
                  }
                }
              }
            }
          }
        }
      }
      JOINT lCollar
      {
        OFFSET 2.68224 19.2634 -4.8768
        CHANNELS 3 Zrotation Xrotation Yrotation
        JOINT lShldr
        {
          OFFSET 8.77824 -1.95073 1.46304
          CHANNELS 3 Zrotation Xrotation Yrotation
          JOINT lForeArm
          {
            OFFSET 28.1742 -1.7115 0.48768
            CHANNELS 3 Zrotation Xrotation Yrotation
            JOINT lHand
            {
              OFFSET 22.5879 0.773209 7.07136
              CHANNELS 3 Zrotation Xrotation Yrotation
              JOINT lThumb1
              {
                OFFSET 1.2192 -0.487915 3.41376
                CHANNELS 3 Zrotation Xrotation Yrotation
                JOINT lThumb2
                {
                  OFFSET 3.37035 -0.52449 3.41376
                  CHANNELS 3 Zrotation Xrotation Yrotation
                  End Site
                  {
                    OFFSET 1.78271 -1.18214 1.43049
                  }
                }
              }
              JOINT lIndex1
              {
                OFFSET 7.75947 0.938293 5.60832
                CHANNELS 3 Zrotation Xrotation Yrotation
                JOINT lIndex2
                {
                  OFFSET 2.54057 -0.884171 1.56538
                  CHANNELS 3 Zrotation Xrotation Yrotation
                  End Site
                  {
                    OFFSET 1.62519 -0.234802 1.16502
                  }
                }
              }
              JOINT lMid1
              {
                OFFSET 8.24714 1.18213 3.41376
                CHANNELS 3 Zrotation Xrotation Yrotation
                JOINT lMid2
                {
                  OFFSET 3.10165 -0.590103 1.0647
                  CHANNELS 3 Zrotation Xrotation Yrotation
                  End Site
                  {
                    OFFSET 2.48547 -0.328903 0.83742
                  }
                }
              }
              JOINT lRing1
              {
                OFFSET 8.82822 0.546677 1.51678
                CHANNELS 3 Zrotation Xrotation Yrotation
                JOINT lRing2
                {
                  OFFSET 2.60934 -0.819778 -0.0198488
                  CHANNELS 3 Zrotation Xrotation Yrotation
                  End Site
                  {
                    OFFSET 2.33842 -0.294052 0.168128
                  }
                }
              }
              JOINT lPinky1
              {
                OFFSET 8.27202 -0.0477905 -0.4584
                CHANNELS 3 Zrotation Xrotation Yrotation
                JOINT lPinky2
                {
                  OFFSET 1.82734 -0.647385 -0.700984
                  CHANNELS 3 Zrotation Xrotation Yrotation
                  End Site
                  {
                    OFFSET 1.69225 -0.51767 -0.607171
                  }
                }
              }
            }
          }
        }
      }
    }
  }
  JOINT rButtock
  {
    OFFSET -8.77824 4.35084 1.2192
    CHANNELS 3 Zrotation Xrotation Yrotation
    JOINT rThigh
    {
      OFFSET 0 -1.70687 -2.19456
      CHANNELS 3 Zrotation Xrotation Yrotation
      JOINT rShin
      {
        OFFSET 0 -36.8199 0.73152
        CHANNELS 3 Zrotation Xrotation Yrotation
        JOINT rFoot
        {
          OFFSET 0.73152 -45.1104 -5.12064
          CHANNELS 3 Zrotation Xrotation Yrotation
          End Site
          {
            OFFSET -1.1221 -3.69964 12.103
          }
        }
      }
    }
  }
  JOINT lButtock
  {
    OFFSET 8.77824 4.35084 1.2192
    CHANNELS 3 Zrotation Xrotation Yrotation
    JOINT lThigh
    {
      OFFSET 0 -1.70687 -2.19456
      CHANNELS 3 Zrotation Xrotation Yrotation
      JOINT lShin
      {
        OFFSET 0 -36.8199 0.73152
        CHANNELS 3 Zrotation Xrotation Yrotation
        JOINT lFoot
        {
          OFFSET -0.73152 -45.1104 -5.12064
          CHANNELS 3 Zrotation Xrotation Yrotation
          End Site
          {
            OFFSET 1.1221 -3.69964 12.103
          }
        }
      }
    }
  }
}
MOTION
Frames:	5
Frame Time:	0.00833333
1.89259 84.3996 -72.1906 0.0 0.0 0.0 -0.991223 -0.00434167 -0.0274291 -0.273429 -0.0044755 -0.0473707 -2.62146e-14 7.95139e-16 3.35449e-16 -7.87933e-14 9.54166e-15 9.51992e-16 -0.0 0.0 0.0 -0.0 0.0 0.0 -1.29228e-14 -9.31803e-18 2.98177e-16 -2.7443e-13 -1.80149e-16 3.37934e-15 -4.75637e-12 1.42191e-12 6.67917e-14 -5.45827e-11 -1.45371e-12 5.82042e-13 -1.28739e-10 -6.96165e-14 1.43761e-12 -2.22338e-10 -1.20861e-13 2.48719e-12 -1.28733e-10 -6.75868e-14 1.42489e-12 7.73091 5.47488 0.417314 -1.28738e-10 -6.91771e-14 1.43125e-12 2.90554 0.965183 0.102902 -1.28728e-10 -6.91771e-14 1.43761e-12 10.2786 0.731801 0.0259123 -1.28744e-10 -6.95746e-14 1.45351e-12 2.22167 -0.733487 -0.20892 -1.31685e-14 -7.76503e-18 0.0 -2.78753e-13 -1.73937e-16 1.59028e-15 -4.7761e-12 -1.42946e-12 1.36764e-13 -5.45815e-11 1.39681e-12 5.31153e-13 -1.28769e-10 -7.24258e-14 1.43761e-12 -2.22371e-10 -1.24042e-13 2.49276e-12 -1.28774e-10 -7.07673e-14 1.45033e-12 -7.73091 5.47488 -0.417314 -1.28768e-10 -7.23576e-14 1.43761e-12 -2.90554 0.965183 -0.102902 -1.28775e-10 -7.22582e-14 1.44e-12 -10.2786 0.731801 -0.0259123 -1.28764e-10 -6.91771e-14 1.43443e-12 -2.22167 -0.733487 0.20892 -2.03217e-16 0.0 -3.88251e-19 -0.253813 -1.9193 -0.0128545 -0.00928904 -2.07855 -0.076732 -0.497338 3.99655 0.138105 2.03217e-16 0.0 3.88251e-19 -1.25492 -5.46676 0.109738 -9.48021e-05 4.34722 -0.0243715 0.511639 1.11837 -0.0811242
1.52628 83.0296 -73.9913 -1.1958 -0.6579 7.4441 -0.712026 -0.0841063 -0.381646 0.227644 1.11061 -0.164105 -0.591626 0.392247 0.0854527 0.4963 2.46052 0.270714 -0.0 0.0 0.0 -0.0 0.0 0.0 1.23404e-14 2.26794e-14 4.93312e-15 21.9054 5.29132 4.60032 -3.51352 -1.47782 5.6098 0.142438 8.38892 1.13386 2.02363e-11 2.26868e-10 -3.60989e-10 2.63436e-11 4.01584e-10 -6.25726e-10 2.02431e-11 2.26869e-10 -3.61e-10 7.73091 5.47488 0.417314 2.02369e-11 2.26868e-10 -3.60995e-10 2.90554 0.965183 0.102902 2.02444e-11 2.26867e-10 -3.60989e-10 10.2786 0.731801 0.0259123 2.02296e-11 2.26866e-10 -3.60976e-10 2.22167 -0.733487 -0.20892 1.21462e-14 2.26806e-14 4.63261e-15 -21.3185 10.5387 -7.29944 2.72626 -1.04125 -4.44862 -0.00217607 -1.03693 0.145645 -3.26479e-10 -1.46034e-10 2.31416e-11 -5.63493e-10 -2.51937e-10 3.93889e-11 -3.26483e-10 -1.4603e-10 2.31542e-11 -7.73091 5.47488 -0.417314 -3.26477e-10 -1.4603e-10 2.31435e-11 -2.90554 0.965183 -0.102902 -3.26483e-10 -1.4603e-10 2.31433e-11 -10.2786 0.731801 -0.0259123 -3.26476e-10 -1.46028e-10 2.31356e-11 -2.22167 -0.733487 0.20892 -2.03217e-16 0.0 -3.88251e-19 -0.872543 -5.70117 -0.865523 -0.0115339 3.35943 0.0140107 -0.51566 0.565541 -0.518461 2.03217e-16 0.0 3.88251e-19 -0.193923 -8.27179 2.03002 -0.0110545 8.26223 -0.0930584 0.625066 -1.10709 2.06541
1.52751 83.0319 -73.9512 -1.1961 -0.6345 7.4666 -0.418605 -0.163013 -0.755806 0.762627 2.28872 -0.287601 -1.21879 0.80479 0.175831 0.995026 5.06103 0.558968 -0.0 0.0 0.0 -0.0 0.0 0.0 3.9879e-14 4.51197e-14 1.00324e-14 44.1301 10.7641 9.58736 -6.91159 -2.99082 11.547 -0.0834836 17.2543 2.41739 1.67622e-10 4.77611e-10 -7.45917e-10 2.71748e-10 8.44746e-10 -1.2927e-09 1.6763e-10 4.77609e-10 -7.45928e-10 7.73091 5.47488 0.417314 1.67622e-10 4.77608e-10 -7.45924e-10 2.90554 0.965183 0.102902 1.67627e-10 4.77606e-10 -7.45918e-10 10.2786 0.731801 0.0259123 1.67613e-10 4.77606e-10 -7.45909e-10 2.22167 -0.733487 -0.20892 3.974e-14 4.51207e-14 9.72803e-15 -40.784 21.0859 -15.8438 5.42982 -2.1193 -9.15084 0.00125643 -2.12539 0.29869 -5.45972e-10 -3.26491e-10 3.12126e-11 -9.42237e-10 -5.63344e-10 5.26939e-11 -5.45976e-10 -3.26485e-10 3.12249e-11 -7.73091 5.47488 -0.417314 -5.45969e-10 -3.26484e-10 3.12165e-11 -2.90554 0.965183 -0.102902 -5.45974e-10 -3.26483e-10 3.12136e-11 -10.2786 0.731801 -0.0259123 -5.45972e-10 -3.26483e-10 3.12034e-11 -2.22167 -0.733487 0.20892 -2.03217e-16 0.0 -3.88251e-19 -1.65097 -9.69948 -1.7842 -0.0327836 9.11192 0.111278 -0.620369 -3.06045 -1.21253 2.03217e-16 0.0 3.88251e-19 1.13567 -11.2219 4.09534 -0.0122413 12.4034 -0.167716 0.926515 -3.45081 4.34299
1.52903 83.0336 -73.914 -1.1883 -0.6129 7.4882 -0.15659 -0.243597 -1.09009 1.24344 3.34072 -0.398159 -1.77839 1.17673 0.256406 1.41865 7.38089 0.818174 -0.0 0.0 0.0 -0.0 0.0 0.0 6.28669e-14 6.80568e-14 1.4203e-14 63.1141 15.4576 14.2685 -9.68425 -4.26377 16.8719 -0.65655 25.1252 3.71734 3.18187e-10 6.80744e-10 -1.08584e-09 5.23707e-10 1.20499e-09 -1.88215e-09 3.18196e-10 6.80742e-10 -1.08585e-09 7.73091 5.47488 0.417314 3.18186e-10 6.80741e-10 -1.08585e-09 2.90554 0.965183 0.102902 3.1819e-10 6.80738e-10 -1.08584e-09 10.2786 0.731801 0.0259123 3.18177e-10 6.80738e-10 -1.08584e-09 2.22167 -0.733487 -0.20892 6.27757e-14 6.80574e-14 1.38978e-14 -55.1313 29.4159 -24.9134 7.698 -3.04852 -13.3629 0.00930663 -3.1107 0.437508 -7.21898e-10 -4.37956e-10 6.65496e-11 -1.24574e-09 -7.55562e-10 1.13181e-10 -7.21901e-10 -4.37949e-10 6.65618e-11 -7.73091 5.47488 -0.417314 -7.21894e-10 -4.37946e-10 6.65552e-11 -2.90554 0.965183 -0.102902 -7.21898e-10 -4.37945e-10 6.655e-11 -10.2786 0.731801 -0.0259123 -7.219e-10 -4.37946e-10 6.65379e-11 -2.22167 -0.733487 0.20892 -2.03217e-16 0.0 -3.88251e-19 -2.45581 -13.2534 -2.62807 -0.0686793 14.2353 0.201511 -0.788883 -6.29319 -1.84195 2.03217e-16 0.0 3.88251e-19 2.50676 -13.8244 5.98209 -0.00371603 16.0922 -0.23696 1.3529 -5.52589 6.38709
1.5312 83.0363 -73.8751 -1.1896 -0.5894 7.4968 0.0286712 -0.328403 -1.32466 1.57923 4.07748 -0.475833 -2.16659 1.44718 0.312426 1.70445 8.9997 0.999 -0.0 0.0 0.0 -0.0 0.0 0.0 7.4478e-14 9.22357e-14 1.60519e-14 75.8409 18.595 17.7426 -11.4894 -5.09691 20.6259 -1.30013 30.5498 4.75812 4.76698e-10 7.64857e-10 -1.31325e-09 7.92055e-10 1.35795e-09 -2.27782e-09 4.76707e-10 7.64855e-10 -1.31326e-09 7.73091 5.47488 0.417314 4.76698e-10 7.64854e-10 -1.31326e-09 2.90554 0.965183 0.102902 4.767e-10 7.64851e-10 -1.31325e-09 10.2786 0.731801 0.0259123 4.76688e-10 7.64851e-10 -1.31325e-09 2.22167 -0.733487 -0.20892 7.44166e-14 9.22359e-14 1.57537e-14 -63.2274 34.2875 -32.3818 9.2129 -3.67659 -16.3335 0.0181023 -3.83822 0.540243 -7.88905e-10 -3.76943e-10 1.70052e-10 -1.36112e-09 -6.49806e-10 2.91624e-10 -7.88908e-10 -3.76935e-10 1.70064e-10 -7.73091 5.47488 -0.417314 -7.889e-10 -3.76932e-10 1.70058e-10 -2.90554 0.965183 -0.102902 -7.88904e-10 -3.76931e-10 1.70052e-10 -10.2786 0.731801 -0.0259123 -7.88908e-10 -3.76932e-10 1.70039e-10 -2.22167 -0.733487 0.20892 -2.03217e-16 0.0 -3.88251e-19 -3.07889 -15.707 -3.23294 -0.103586 17.786 0.267461 -0.950615 -8.5464 -2.29559 2.03217e-16 0.0 3.88251e-19 3.56853 -15.6077 7.32931 0.00802632 18.6502 -0.287031 1.7375 -6.96141 7.81768
